<?xml version="1.0" encoding="UTF-8"?>
<svg version="1.1" viewBox="0 0 1600 1600" xmlns="http://www.w3.org/2000/svg">
<path transform="translate(927 82.4)" d="m0 0c1.11-0.00955 1.11-0.00955 2.25-0.0193 2.5-0.0153 4.99 0.00518 7.49 0.0254 1.8-0.00361 3.61-0.00941 5.41-0.0172 4.97-0.0151 9.93 0.0011 14.9 0.0223 5.35 0.0174 10.7 0.00612 16.1-0.00167 10.5-0.0107 21 0.0053 31.5 0.0301 12.2 0.0279 24.4 0.0293 36.6 0.0294 21.8 0.00119 43.5 0.0262 65.3 0.0647 21.1 0.0374 42.3 0.0586 63.4 0.0615 1.3 1.83e-4 2.6 3.66e-4 3.95 5.54e-4 1.3 1.79e-4 2.6 3.58e-4 3.94 5.42e-4 2.62 3.65e-4 5.23 7.38e-4 7.85 0.00112 1.29 1.86e-4 2.58 3.71e-4 3.91 5.62e-4 20.1 0.00357 40.2 0.022 60.4 0.0419 7.3 0.00703 14.6 0.0118 21.9 0.015 11.6 0.00504 23.2 0.0164 34.7 0.0413 5.29 0.0112 10.6 0.0193 15.9 0.0189 4.84-3.07e-4 9.68 0.00856 14.5 0.025 1.76 0.00434 3.51 0.00527 5.27 0.00257 2.38-0.00314 4.75 0.00587 7.13 0.0181 0.692-0.00382 1.38-0.00765 2.1-0.0116 3.6 0.0329 4.99 0.212 8.08 2.27-14 14-14 14-16.4 16.4-2.28 2.28-4.54 4.57-6.81 6.86-2.11 2.14-4.23 4.27-6.35 6.41-1.12 1.13-2.23 2.26-3.35 3.39-1.62 1.64-3.24 3.27-4.86 4.91-0.499 0.509-0.998 1.02-1.51 1.54-1.22 1.22-2.48 2.38-3.76 3.53h-2c-0.402 0.959-0.402 0.959-0.812 1.94-1.19 2.06-1.19 2.06-4.19 3.06l-2 4-3 1-0.812 1.69c-1.72 3.35-4.27 5.94-7.19 8.31h-2c-0.402 0.959-0.402 0.959-0.812 1.94-1.19 2.06-1.19 2.06-4.19 3.06l-0.812 1.69c-1.72 3.35-4.27 5.94-7.19 8.31h-2v3c-1.68 1.82-1.68 1.82-3.88 3.69-1.08 0.934-1.08 0.934-2.18 1.89-1.95 1.43-1.95 1.43-3.95 1.43-0.402 0.959-0.402 0.959-0.812 1.94-1.19 2.06-1.19 2.06-4.19 3.06-0.712 1.31-1.37 2.65-2 4-0.997 1.31-2.04 2.58-3.12 3.81-0.808 0.938-0.808 0.938-1.63 1.89-1.81 1.85-3.61 3.48-5.58 5.14-6.11 5.33-11.8 11.1-17.5 16.9-1.3 1.3-2.6 2.6-3.91 3.9-3.58 3.58-7.16 7.16-10.7 10.7-3.89 3.89-7.79 7.79-11.7 11.7-6.82 6.82-13.6 13.6-20.5 20.5-10.1 10.1-20.3 20.3-30.4 30.4-17.1 17.1-34.1 34.1-51.2 51.2-16.9 16.9-33.8 33.8-50.7 50.7-0.525 0.525-1.05 1.05-1.59 1.59-4.8 4.8-9.59 9.59-14.4 14.4-11.9 11.9-23.9 23.9-35.8 35.8-0.543 0.543-1.09 1.09-1.65 1.65-26.4 26.4-52.8 52.8-79.2 79.3-9.16 9.17-18.3 18.3-27.5 27.5-0.568 0.568-1.14 1.14-1.72 1.72-26.4 26.4-52.8 52.8-79.2 79.3-1.71 1.71-3.43 3.43-5.14 5.14-11.4 11.4-22.7 22.7-34.1 34.1-22.6 22.6-45.2 45.3-67.9 67.9-1.08 1.08-2.16 2.16-3.23 3.23-57.3 57.3-115 115-195 195-1.38 1.38-2.76 2.76-4.13 4.13-2.51 2.51-5.02 5.03-7.54 7.54-1.11 1.11-2.22 2.22-3.32 3.33-0.487 0.487-0.974 0.974-1.48 1.48-3 3-6 6-9 9l-1.84 1.84c-5.16 5.16-5.16 5.16-7.47 7.47-2.5 2.51-4.99 5.03-7.48 7.55-1.8 1.82-3.6 3.63-5.39 5.45-0.915 0.931-1.83 1.86-2.77 2.82-0.873 0.88-1.75 1.76-2.65 2.67-1.19 1.21-1.19 1.21-2.41 2.44-1.98 1.76-1.98 1.76-3.98 1.76-0.228 0.553-0.456 1.11-0.691 1.67-1.69 3-3.82 5.09-6.25 7.53-0.481 0.483-0.961 0.965-1.46 1.46-1.01 1.01-2.03 2.03-3.05 3.04-1.56 1.55-3.11 3.11-4.66 4.67-0.986 0.985-1.97 1.97-2.96 2.95-0.898 0.896-1.8 1.79-2.72 2.72-2.21 1.96-2.21 1.96-4.21 1.96v-2c-0.594-0.268-1.19-0.537-1.8-0.813-2.22-1.2-3.65-2.4-5.42-4.18-0.604-0.604-1.21-1.21-1.83-1.83-0.963-0.978-0.963-0.978-1.94-1.98-0.671-0.673-1.34-1.35-2.03-2.04-2.14-2.15-4.28-4.31-6.41-6.47-1.43-1.44-2.87-2.88-4.3-4.33-2.64-2.66-5.28-5.32-7.91-7.98-2.77-2.8-5.56-5.6-8.35-8.38l-104-104c-0.881-0.88-0.881-0.88-1.78-1.78-1.04-1.04-2.08-2.09-3.12-3.14-1.9-1.92-3.74-3.67-5.89-5.31-2.96-2.46-5.3-5.18-7.8-8.1-2.79-3.18-5.81-6.12-8.83-9.09-1.67-1.67-3.33-3.33-5-5-1.49-1.49-2.98-2.98-4.47-4.47l-38.5-38.5c2.04-4.4 4.74-7.9 9.19-10.1 1.97-0.792 1.97-0.792 2.73-2.82 1.18-2.29 2.26-3.29 4.27-4.86 3.53-2.88 6.36-6.09 9.23-9.61 1.58-1.64 1.58-1.64 4.58-2.64l1-2c1-2 1-2 4-3l0.875-1.75c2.03-4.06 4.83-6.82 9.12-8.25l0.812-1.69c1.72-3.35 4.27-5.94 7.19-8.31h2c0.248-0.763 0.495-1.53 0.75-2.31 1.37-2.95 2.49-4.05 5.25-5.69h2c0.248-0.763 0.495-1.53 0.75-2.31 1.37-2.95 2.49-4.05 5.25-5.69h2c0.262-0.589 0.523-1.18 0.793-1.79 1.27-2.33 2.61-3.82 4.52-5.65 0.574-0.556 1.15-1.11 1.74-1.68 0.643-0.62 1.29-1.24 1.95-1.88 1.67-1.66 3.34-3.33 5-5 1.49-1.49 2.98-2.98 4.47-4.47 0.819-0.819 1.64-1.64 2.48-2.48l7.58-7.58c1.17-1.17 1.17-1.17 2.36-2.36 1.25-1.25 2.5-2.49 3.75-3.73 1.87-1.85 3.57-3.65 5.17-5.75 2.46-2.96 5.18-5.3 8.1-7.8 3.18-2.79 6.12-5.81 9.09-8.83l2.69-2.62c2.32-2.29 2.32-2.29 4.12-4.75 2.46-2.96 5.18-5.3 8.1-7.8 3.18-2.79 6.12-5.81 9.09-8.83 1.67-1.67 3.33-3.33 5-5 1.08-1.08 2.17-2.17 3.25-3.25 58.7-58.7 117-117 476-476 0.56-0.601 1.12-1.2 1.7-1.82 1.3-1.18 1.3-1.18 3.3-1.18v-2c1.88-2.12 1.88-2.12 4-4h2c0.227-0.578 0.454-1.16 0.688-1.75 1.66-2.84 3.74-4.2 6.31-6.25 1.56-1.71 3.03-3.48 4.52-5.25 2.05-2.41 4.15-4.61 6.48-6.75h2c0.227-0.578 0.454-1.16 0.688-1.75 1.66-2.85 3.73-4.19 6.31-6.25 1.15-1.27 2.27-2.57 3.38-3.88 2.23-2.62 4.46-4.94 7.12-7.12 3.34-2.75 6.08-5.83 8.88-9.12 2.09-2.42 4.33-4.65 6.62-6.88l10-10c0.723-0.864 1.45-1.73 2.19-2.62 3.45-2.93 5.91-3.08 10.2-3z" fill="#49C5F6"/>
<path transform="translate(927 746)" d="m0 0c0.74-0.00406 1.48-0.00812 2.24-0.0123 2.5-0.01 5 0.00152 7.5 0.0128 1.8-0.00274 3.61-0.00679 5.41-0.012 4.97-0.0106 9.94-0.00243 14.9 0.00875 5.35 0.00881 10.7 4.06e-4 16.1-0.00586 10.5-0.00951 21-0.00287 31.5 0.00926 12.2 0.0136 24.4 0.012 36.6 0.00987 21.8-0.00319 43.6 0.00849 65.3 0.0281 21.2 0.019 42.3 0.0261 63.5 0.0205 23-0.00605 46-0.00589 69 0.00549 2.45 0.00121 4.9 0.00241 7.36 0.00362 1.21 6.04e-4 2.41 0.00121 3.66 0.00183 8.52 0.00389 17 0.00348 25.6 0.00159 10.4-0.00212 20.8 0.00307 31.1 0.0176 5.3 0.00726 10.6 0.0113 15.9 0.00676 4.84-0.00406 9.69 0.00103 14.5 0.0136 1.76 0.00294 3.52 0.00247 5.28-0.00164 2.38-0.00507 4.76 0.00202 7.14 0.0123 0.692-0.0044 1.38-0.00879 2.1-0.0133 3.6 0.03 5 0.207 8.09 2.27l-2.19 1.69c-2.79 2.3-5.29 4.72-7.81 7.31-5 5-5 5-7.31 7.25-2.28 2.34-4.42 4.72-6.56 7.19-3 3.41-6.1 6.36-9.6 9.23-2.15 1.88-3.79 4.07-5.52 6.33-2.62 2.81-2.62 2.81-5 5h-2c-0.257 0.596-0.513 1.19-0.777 1.8-1.33 2.39-2.66 3.62-4.79 5.32-2.65 2.08-2.65 2.08-4.44 4.88h-2l-1 3h-2l-0.625 1.69c-1.55 2.6-3.44 4.16-5.8 6.03-2.37 1.93-4.45 4.1-6.58 6.29l-2.5 2.44c-1.87 1.92-3.52 3.79-5.19 5.88-0.763 0.887-1.53 1.77-2.31 2.69h-2l-1 3c-1.42 1.36-1.42 1.36-3.19 2.75-3.29 2.69-5.92 5.6-8.55 8.93-0.416 0.436-0.833 0.871-1.26 1.32h-2l-1 3c-2.44 2.69-2.44 2.69-5 5h-2l-1 3c-2.44 2.69-2.44 2.69-5 5h-2l-1 3c-1.43 1.2-2.86 2.39-4.32 3.55-1.77 1.53-3.19 3.15-4.68 4.95-2.7 3.26-5.74 5.79-9 8.5-1.02 1.15-2.02 2.32-3 3.5-2.7 3.26-5.74 5.79-9 8.5-1.02 1.15-2.02 2.32-3 3.5-2.7 3.26-5.74 5.79-9 8.5-1.02 1.15-2.02 2.32-3 3.5-2.7 3.26-5.74 5.79-9 8.5-1.02 1.15-2.02 2.32-3 3.5-2.7 3.26-5.74 5.79-9 8.5-1.02 1.15-2.02 2.32-3 3.5-2.7 3.26-5.74 5.79-9 8.5-1.02 1.15-2.02 2.32-3 3.5-2.7 3.26-5.74 5.79-9 8.5-1.02 1.15-2.02 2.32-3 3.5-2.7 3.26-5.74 5.79-9 8.5-1.02 1.15-2.02 2.32-3 3.5-2.7 3.26-5.74 5.79-9 8.5-1.02 1.15-2.02 2.32-3 3.5-2.7 3.26-5.74 5.79-9 8.5-1.02 1.15-2.02 2.32-3 3.5-2.7 3.26-5.74 5.79-9 8.5-1.02 1.15-2.02 2.32-3 3.5-2.7 3.26-5.74 5.79-9 8.5-1.02 1.15-2.02 2.32-3 3.5-2.7 3.26-5.74 5.79-9 8.5-1.02 1.15-2.02 2.32-3 3.5-2.7 3.26-5.74 5.79-9 8.5-1.54 1.73-3.01 3.51-4.49 5.3-1.47 1.65-2.98 3.01-4.7 4.39-2.43 2-3.97 3.82-5.81 6.31h-2l-1 3c-1.4 1.17-2.81 2.33-4.24 3.46-2.73 2.39-4.95 5.17-7.24 7.96-0.5 0.519-1 1.04-1.52 1.57h-2c-0.371 0.866-0.371 0.866-0.75 1.75-1.43 2.58-3.03 4.31-5.25 6.25h-2l-1 3c-1.41 1.17-2.82 2.34-4.25 3.48-1.97 1.72-3.61 3.59-5.31 5.59-2.6 3.06-5.29 5.44-8.44 7.94-0.956 1.09-1.89 2.19-2.81 3.31-2.06 2.47-4.16 4.61-6.62 6.69-4.36 3.74-8.51 7.68-12.6 11.7-0.692 0.654-1.38 1.31-2.1 1.98-0.639 0.628-1.28 1.26-1.94 1.9-0.583 0.563-1.17 1.13-1.77 1.71-1.37 1.67-1.37 1.67-0.897 3.82 2.03 5.06 6.47 8.76 10.8 11.9v2l1.69 0.688c4.92 2.79 8.34 7.44 11.9 11.8 1.54 1.8 1.54 1.8 4.43 3.55v2l1.69 0.688c2.3 1.31 3.86 2.79 5.7 4.67 1.99 2.02 4.02 4.01 6.04 6 1.63 1.61 3.26 3.22 4.89 4.83 0.836 0.819 1.67 1.64 2.53 2.48 0.79 0.783 1.58 1.57 2.39 2.37 1.08 1.07 1.08 1.07 2.19 2.16 1.57 1.8 1.57 1.8 1.57 3.8 0.99 0.33 1.98 0.66 3 1 2.69 2.44 2.69 2.44 5 5v2c0.99 0.33 1.98 0.66 3 1 2.69 2.44 2.69 2.44 5 5v2c0.99 0.33 1.98 0.66 3 1 2.69 2.44 2.69 2.44 5 5v2c0.99 0.33 1.98 0.66 3 1 2.69 2.44 2.69 2.44 5 5v2c0.99 0.33 1.98 0.66 3 1 2.69 2.44 2.69 2.44 5 5v2c0.99 0.33 1.98 0.66 3 1v2l1.94 0.812c2.06 1.19 2.06 1.19 3.06 4.19 0.99 0.33 1.98 0.66 3 1 2.69 2.44 2.69 2.44 5 5v2c0.99 0.33 1.98 0.66 3 1 2.69 2.44 2.69 2.44 5 5v2c0.99 0.33 1.98 0.66 3 1 2.69 2.44 2.69 2.44 5 5v2c0.99 0.33 1.98 0.66 3 1 2.69 2.44 2.69 2.44 5 5v2c0.99 0.33 1.98 0.66 3 1 2.69 2.44 2.69 2.44 5 5v2c0.99 0.33 1.98 0.66 3 1 2.69 2.44 2.69 2.44 5 5v2c0.99 0.33 1.98 0.66 3 1 2.69 2.44 2.69 2.44 5 5v2c0.99 0.33 1.98 0.66 3 1 2.69 2.44 2.69 2.44 5 5v2c0.99 0.33 1.98 0.66 3 1 2.69 2.44 2.69 2.44 5 5v2c0.99 0.33 1.98 0.66 3 1 2.69 2.44 2.69 2.44 5 5v2c0.99 0.33 1.98 0.66 3 1 2.69 2.44 2.69 2.44 5 5v2c0.99 0.33 1.98 0.66 3 1 2.69 2.44 2.69 2.44 5 5v2c0.99 0.33 1.98 0.66 3 1 2.69 2.44 2.69 2.44 5 5v2c0.99 0.33 1.98 0.66 3 1 2.69 2.44 2.69 2.44 5 5v2c0.99 0.33 1.98 0.66 3 1 2.69 2.44 2.69 2.44 5 5v2c0.99 0.33 1.98 0.66 3 1 2.69 2.44 2.69 2.44 5 5v2c0.99 0.33 1.98 0.66 3 1 2.69 2.44 2.69 2.44 5 5v2c0.99 0.33 1.98 0.66 3 1 2.69 2.44 2.69 2.44 5 5v2c0.99 0.33 1.98 0.66 3 1 2.69 2.44 2.69 2.44 5 5v2c0.99 0.33 1.98 0.66 3 1 2.69 2.44 2.69 2.44 5 5v2c0.99 0.33 1.98 0.66 3 1v2l1.94 0.812c2.06 1.19 2.06 1.19 3.06 4.19 0.99 0.33 1.98 0.66 3 1 2.69 2.44 2.69 2.44 5 5v2c0.99 0.33 1.98 0.66 3 1v2l1.69 0.688c2.97 1.69 4.92 3.87 7.31 6.31 1.01 1.01 2.03 2.01 3.05 3.01 2.96 2.92 5.91 5.86 8.87 8.79 1.27 1.26 2.55 2.53 3.83 3.79 1.85 1.82 3.69 3.65 5.53 5.49 0.575 0.565 1.15 1.13 1.74 1.71 1.37 1.37 2.68 2.79 3.99 4.21v2c0.564 0.239 1.13 0.478 1.71 0.724 2.79 1.55 4.71 3.43 6.97 5.69 0.921 0.914 1.84 1.83 2.79 2.77 0.996 0.999 1.99 2 2.99 3 1.03 1.02 2.05 2.05 3.08 3.07 2.14 2.14 4.29 4.29 6.43 6.44 2.75 2.76 5.5 5.51 8.26 8.25 2.12 2.11 4.23 4.23 6.34 6.34 1.01 1.02 2.03 2.03 3.05 3.04 1.42 1.41 2.83 2.83 4.24 4.25 1.21 1.21 1.21 1.21 2.44 2.44 1.72 1.97 1.72 1.97 1.72 3.97l1.94 0.812c2.06 1.19 2.06 1.19 3.06 4.19 0.99 0.33 1.98 0.66 3 1 1.39 1.63 1.39 1.63 2.69 3.56 0.437 0.641 0.874 1.28 1.32 1.94 0.326 0.494 0.652 0.987 0.988 1.5-44.7 1.18-89.4 1.06-134 0.91-10.6-0.0359-21.2-0.0649-31.8-0.0938-18.9-0.0515-37.8-0.108-56.7-0.168-18.3-0.0581-36.6-0.114-54.9-0.166-1.7-0.00487-1.7-0.00487-3.44-0.00985-5.7-0.0163-11.4-0.0325-17.1-0.0488-47-0.134-94-0.276-141-0.424v-2c-0.868-0.379-0.868-0.379-1.75-0.766-2.51-1.38-4.17-2.93-6.18-4.97-0.732-0.738-1.46-1.48-2.22-2.24-1.13-1.16-1.13-1.16-2.29-2.34-0.751-0.76-1.5-1.52-2.28-2.3-1.41-1.43-2.82-2.86-4.22-4.29-2.34-2.38-4.7-4.74-7.06-7.1-73.4-73.4-147-147-359-359 4.05-6.21 8.69-10.8 14.3-15.5 2.35-2.04 4.52-4.24 6.7-6.47l2.56-2.5c2.49-2.47 2.49-2.47 4.62-5.31 0.598-0.722 1.2-1.44 1.81-2.19h2c0.253-0.592 0.505-1.18 0.766-1.79 1.38-2.47 2.8-3.74 4.98-5.52 2.69-2.27 5.08-4.53 7.31-7.25 2.5-3.04 5.25-5.46 8.28-7.97 2.54-2.25 4.52-4.83 6.66-7.47 2.69-2.88 2.69-2.88 5-5h2l1-3c1.43-1.2 2.87-2.39 4.33-3.55 1.74-1.51 3.15-3.1 4.61-4.89 2.55-3.08 5.33-5.55 8.41-8.09 2.52-2.23 4.51-4.89 6.66-7.47l2.94-2.44c2.36-1.97 4.08-3.67 6-6 2.55-3.08 5.33-5.55 8.41-8.09 2.52-2.23 4.51-4.89 6.66-7.47l2.94-2.44c2.36-1.97 4.08-3.67 6-6 2.58-3.13 5.39-5.67 8.55-8.2 1.77-1.48 1.77-1.48 3.52-4.36h2l1-3c1.43-1.2 2.87-2.39 4.33-3.55 1.72-1.49 3.1-3.06 4.54-4.82 2.8-3.38 5.92-6.17 9.25-9.01 4.49-3.86 8.31-8.23 12.2-12.7 2.13-2.41 4.39-4.68 6.7-6.92 0.722-0.763 1.44-1.53 2.19-2.31 1.81-1.69 1.81-1.69 3.81-1.69v-2c1.57-1.52 1.57-1.52 3.69-3.25 3.57-3.03 6.39-6.11 9.31-9.75 2.38-2.5 4.7-4.77 7.44-6.88 2.72-2.25 4.82-4.68 7.08-7.38 2.05-2.41 4.15-4.61 6.48-6.75h2v-2c1.54-1.48 1.54-1.48 3.62-3.19 2.71-2.3 5.13-4.56 7.38-7.31 2.13-2.6 4.37-4.77 6.94-6.94 2.78-2.36 5.21-4.78 7.56-7.56 2.93-3.47 6.13-6.34 9.59-9.28 2.43-2.19 4.48-4.59 6.56-7.11 3.25-3.88 6.98-7.17 10.8-10.5 3.41-2.99 6.35-6.09 9.22-9.6 1.88-2.14 4.1-3.77 6.34-5.53 0.557-0.742 1.11-1.48 1.69-2.25 0.433-0.578 0.866-1.16 1.31-1.75h2l1-3c2.44-2.69 2.44-2.69 5-5h2l1-3c1.49-1.43 1.49-1.43 3.31-2.88 3-2.46 5.27-5.09 7.69-8.12h2v-2h2v-2c1.29-1.23 1.29-1.23 3.06-2.62 2.74-2.26 5.08-4.59 7.38-7.31 2.36-2.78 4.78-5.21 7.56-7.56 2.76-2.34 5.16-4.74 7.5-7.5 2.92-3.45 6.08-6.3 9.53-9.21 2.68-2.42 4.93-5.13 7.25-7.88 2.16-2.4 4.55-4.37 7.04-6.41 1.73-1.53 3.15-3.15 4.62-4.93 2.78-3.37 5.89-6.17 9.23-8.98 1.84-1.47 1.84-1.47 3-3.15 2.78-2.16 5.64-1.84 9.02-1.8z" fill="#49C5F6"/>
<path transform="translate(978 1133)" d="m0 0c3.02 1.99 4.91 4.65 7.19 7.44 1.33 1.01 2.66 2.01 4 3v2l1.69 0.688c4.92 2.79 8.34 7.44 11.9 11.8 1.54 1.8 1.54 1.8 4.43 3.55v2l1.69 0.688c2.3 1.31 3.86 2.79 5.7 4.67 1.99 2.02 4.02 4.01 6.04 6 1.63 1.61 3.26 3.22 4.89 4.83 0.836 0.819 1.67 1.64 2.53 2.48 1.18 1.17 1.18 1.17 2.39 2.37 1.08 1.07 1.08 1.07 2.19 2.16 1.57 1.8 1.57 1.8 1.57 3.8 0.99 0.33 1.98 0.66 3 1 2.69 2.44 2.69 2.44 5 5v2c0.99 0.33 1.98 0.66 3 1 2.69 2.44 2.69 2.44 5 5v2c0.99 0.33 1.98 0.66 3 1 2.69 2.44 2.69 2.44 5 5v2c0.99 0.33 1.98 0.66 3 1 2.69 2.44 2.69 2.44 5 5v2c0.99 0.33 1.98 0.66 3 1 2.69 2.44 2.69 2.44 5 5v2c0.99 0.33 1.98 0.66 3 1v2l1.94 0.812c2.06 1.19 2.06 1.19 3.06 4.19 0.99 0.33 1.98 0.66 3 1 2.69 2.44 2.69 2.44 5 5v2c0.99 0.33 1.98 0.66 3 1 2.69 2.44 2.69 2.44 5 5v2c0.99 0.33 1.98 0.66 3 1 2.69 2.44 2.69 2.44 5 5v2c0.99 0.33 1.98 0.66 3 1 2.69 2.44 2.69 2.44 5 5v2c0.99 0.33 1.98 0.66 3 1 2.69 2.44 2.69 2.44 5 5v2c0.99 0.33 1.98 0.66 3 1 2.69 2.44 2.69 2.44 5 5v2c0.99 0.33 1.98 0.66 3 1 2.69 2.44 2.69 2.44 5 5v2c0.99 0.33 1.98 0.66 3 1 2.69 2.44 2.69 2.44 5 5v2c0.99 0.33 1.98 0.66 3 1 2.69 2.44 2.69 2.44 5 5v2c0.99 0.33 1.98 0.66 3 1 2.69 2.44 2.69 2.44 5 5v2c0.99 0.33 1.98 0.66 3 1 2.69 2.44 2.69 2.44 5 5v2c0.99 0.33 1.98 0.66 3 1 2.69 2.44 2.69 2.44 5 5v2c0.99 0.33 1.98 0.66 3 1 2.69 2.44 2.69 2.44 5 5v2c0.99 0.33 1.98 0.66 3 1 2.69 2.44 2.69 2.44 5 5v2c0.99 0.33 1.98 0.66 3 1 2.69 2.44 2.69 2.44 5 5v2c0.99 0.33 1.98 0.66 3 1 2.69 2.44 2.69 2.44 5 5v2c0.99 0.33 1.98 0.66 3 1 2.69 2.44 2.69 2.44 5 5v2c0.99 0.33 1.98 0.66 3 1 2.69 2.44 2.69 2.44 5 5v2c0.99 0.33 1.98 0.66 3 1 2.69 2.44 2.69 2.44 5 5v2c0.99 0.33 1.98 0.66 3 1 2.69 2.44 2.69 2.44 5 5v2c0.99 0.33 1.98 0.66 3 1v2l1.94 0.812c2.06 1.19 2.06 1.19 3.06 4.19 0.99 0.33 1.98 0.66 3 1 2.69 2.44 2.69 2.44 5 5v2c0.99 0.33 1.98 0.66 3 1v2l1.69 0.688c2.97 1.69 4.92 3.87 7.31 6.31 1.01 1.01 2.03 2.01 3.05 3.01 2.96 2.92 5.91 5.86 8.87 8.79 1.27 1.26 2.55 2.53 3.83 3.79 1.85 1.82 3.69 3.65 5.53 5.49 0.575 0.565 1.15 1.13 1.74 1.71 1.37 1.37 2.68 2.79 3.99 4.21v2c0.564 0.239 1.13 0.478 1.71 0.724 2.79 1.55 4.71 3.43 6.97 5.69 0.921 0.914 1.84 1.83 2.79 2.77 0.996 0.999 1.99 2 2.99 3 1.03 1.02 2.05 2.05 3.08 3.07 2.14 2.14 4.29 4.29 6.43 6.44 2.75 2.76 5.5 5.51 8.26 8.25 2.12 2.11 4.23 4.23 6.34 6.34 1.01 1.02 2.03 2.03 3.05 3.04 1.42 1.41 2.83 2.83 4.24 4.25 1.21 1.21 1.21 1.21 2.44 2.44 1.72 1.97 1.72 1.97 1.72 3.97l1.94 0.812c2.06 1.19 2.06 1.19 3.06 4.19 0.99 0.33 1.98 0.66 3 1 1.39 1.63 1.39 1.63 2.69 3.56 0.655 0.961 0.655 0.961 1.32 1.94 0.326 0.494 0.652 0.987 0.988 1.5-44.7 1.18-89.4 1.06-134 0.91-10.6-0.0359-21.2-0.0649-31.8-0.0938-18.9-0.0515-37.8-0.108-56.7-0.168-18.3-0.0581-36.6-0.114-54.9-0.166-1.14-0.00325-2.27-0.0065-3.44-0.00985-5.7-0.0163-11.4-0.0325-17.1-0.0488-47-0.134-94-0.276-141-0.424v-2c-0.579-0.253-1.16-0.506-1.75-0.766-2.51-1.38-4.17-2.93-6.18-4.97-1.1-1.11-1.1-1.11-2.22-2.24-0.755-0.772-1.51-1.54-2.29-2.34-1.13-1.14-1.13-1.14-2.28-2.3-1.41-1.43-2.82-2.86-4.22-4.29-4.26-4.32-8.56-8.59-12.9-12.9-1.17-1.17-2.34-2.33-3.51-3.5-0.62-0.618-1.24-1.24-1.88-1.87-14.3-14.2-28.5-28.5-42.8-42.7-8.24-8.23-16.5-16.5-24.7-24.7-7.2-7.18-14.4-14.4-21.6-21.5-3.81-3.8-7.61-7.6-11.4-11.4-3.58-3.57-7.15-7.14-10.7-10.7-1.31-1.31-2.63-2.62-3.95-3.93-1.79-1.78-3.58-3.57-5.36-5.36-0.79-0.781-0.79-0.781-1.6-1.58-2.3-2.32-3.64-3.8-4.69-6.95l3.19-3.19c0.641-0.642 1.28-1.28 1.94-1.95 1.49-1.49 2.99-2.96 4.5-4.43 2.46-2.45 2.46-2.45 4.75-5.38 1.83-2.25 3.76-4.09 6-5.94 2.63-2.18 4.86-4.45 7.06-7.06 2.89-3.39 5.98-6.25 9.37-9.13 7.5-6.24 7.5-6.24 13.2-13.9h2v-2h2v-2c3.46-3 3.46-3 6-3 0.231-0.558 0.461-1.12 0.699-1.69 1.65-2.92 3.71-4.91 6.11-7.25 0.852-0.834 1.7-1.67 2.58-2.53 1.29-1.25 1.29-1.25 2.61-2.54 1.67-1.66 3.33-3.33 5-5 1.23-1.23 2.47-2.47 3.7-3.7l27.6-27.6c0.639-0.639 1.28-1.28 1.94-1.94 1.1-1.1 2.21-2.21 3.32-3.31 2.21-2.2 4.3-4.41 6.26-6.83 2.81-3.33 5.93-6.06 9.25-8.88 1.83-1.65 3.37-3.35 4.94-5.25 2.7-3.29 5.72-6 8.97-8.73 2.46-2.15 4.72-4.46 7.03-6.77l24-24c0.898-0.94 1.8-1.88 2.72-2.85 2.28-2.15 2.28-2.15 4.28-2.15 0.266-0.581 0.531-1.16 0.805-1.76 3.28-6.15 8.74-10.9 14-15.3 3.55-3.15 6.8-6.58 10.1-10 2.1-1.94 2.1-1.94 4.1-1.94 0.34-0.835 0.34-0.835 0.688-1.69 1.95-3.44 5.68-9.13 10.1-7.75z" fill="#00579A"/>
<path transform="translate(755,910)" d="m0 0c3 2 3 2 5.31 4.62 3.33 2.94 4.38 2.46 8.69 2.38 4.39 1.61 7.38 3.06 10 7 1.02 0.864 2.06 1.7 3.12 2.5l2.88 2.5v3h2c0.474 0.639 0.949 1.28 1.44 1.94 1.47 2.35 1.47 2.35 4.56 3.06 4 4.46 4 4.46 4 7l4 1v3h2v2l1.75 0.812c5.83 3.07 5.83 3.07 7.25 6.81l1 2.38c2.04 0.887 2.04 0.887 4 1v3h2c0.248 0.639 0.495 1.28 0.75 1.94 1.07 2.25 1.07 2.25 3.38 2.81 0.619 0.0825 1.24 0.165 1.88 0.25v3h2c0.248 0.639 0.495 1.28 0.75 1.94 1.07 2.25 1.07 2.25 3.38 2.81 0.619 0.0825 1.24 0.165 1.88 0.25v3h2c0.248 0.639 0.495 1.28 0.75 1.94 1.07 2.25 1.07 2.25 3.38 2.81 0.619 0.0825 1.24 0.165 1.88 0.25v3h2v2h2v2l4 1v3h2c0.248 0.639 0.495 1.28 0.75 1.94 1.07 2.25 1.07 2.25 3.38 2.81 0.619 0.0825 1.24 0.165 1.88 0.25v3h2c0.248 0.639 0.495 1.28 0.75 1.94 1.07 2.25 1.07 2.25 3.38 2.81 0.619 0.0825 1.24 0.165 1.88 0.25v3h2c0.248 0.639 0.495 1.28 0.75 1.94 1.07 2.25 1.07 2.25 3.38 2.81 0.619 0.0825 1.24 0.165 1.88 0.25v3h2c0.248 0.639 0.495 1.28 0.75 1.94 1.07 2.25 1.07 2.25 3.38 2.81 0.619 0.0825 1.24 0.165 1.88 0.25v3h2v2h2v2l4 1v3h2c0.248 0.639 0.495 1.28 0.75 1.94 1.07 2.25 1.07 2.25 3.38 2.81 0.619 0.0825 1.24 0.165 1.88 0.25v3h2c0.248 0.639 0.495 1.28 0.75 1.94 1.07 2.25 1.07 2.25 3.38 2.81 0.619 0.0825 1.24 0.165 1.88 0.25v3h2c0.248 0.639 0.495 1.28 0.75 1.94 1.07 2.25 1.07 2.25 3.38 2.81 0.619 0.0825 1.24 0.165 1.88 0.25v3h2c0.248 0.639 0.495 1.28 0.75 1.94 1.07 2.25 1.07 2.25 3.38 2.81 0.619 0.0825 1.24 0.165 1.88 0.25v3h2v2l1.75 0.812c2.32 1.23 4.29 2.44 6.25 4.19v3l1.62 0.688c4.69 2.59 8.81 6.33 12.4 10.3v2l1.94 0.812c2.06 1.19 2.06 1.19 3.06 4.19 0.969 0.268 1.94 0.536 2.94 0.812l3.06 1.19c1.12 3 1.12 3 2 6 2.02 1.13 2.02 1.13 4 2 0.75 2.12 0.75 2.12 1 4h2c1.4 1.98 1.4 1.98 2.94 4.62 0.53 0.909 1.06 1.82 1.61 2.75 1.13 2.03 2.18 4.1 3.21 6.18 1.01 2.56 1.01 2.56 3.25 3.44 0.625 2.56 0.625 2.56 1 5l-2.38 0.75c-3.11 1.48-3.24 2.22-4.62 5.25-1.12 1.16-2.25 2.31-3.41 3.44-1.86 1.82-3.69 3.68-5.51 5.55-1.42 1.44-2.85 2.88-4.27 4.32-0.724 0.741-1.45 1.48-2.19 2.24-0.693 0.699-1.39 1.4-2.1 2.12-0.628 0.638-1.26 1.28-1.9 1.93-1.62 1.39-1.62 1.39-3.62 1.39-0.391 0.864-0.391 0.864-0.789 1.75-1.3 2.42-2.77 4.26-4.59 6.32-0.585 0.672-1.17 1.34-1.77 2.04-1.84 1.89-3.65 3.45-5.85 4.9h-2c-0.219 0.544-0.438 1.09-0.664 1.65-1.78 3.13-4.18 5.48-6.71 7.99-0.525 0.527-1.05 1.05-1.59 1.6-1.11 1.11-2.22 2.21-3.33 3.32-1.71 1.7-3.4 3.4-5.1 5.11-1.08 1.08-2.16 2.15-3.23 3.23-0.508 0.512-1.02 1.02-1.54 1.55-3.6 3.56-3.6 3.56-5.83 3.56-0.268 0.639-0.536 1.28-0.812 1.94-1.19 2.06-1.19 2.06-4.19 3.06l-2 4c-0.99 0.33-1.98 0.66-3 1-0.673 1.33-1.34 2.66-2 4-1.55 1.69-3.17 3.33-4.81 4.94-0.852 0.834-1.7 1.67-2.58 2.53-1.29 1.25-1.29 1.25-2.61 2.54-2.59 2.58-5.16 5.17-7.69 7.81-2.31 2.19-2.31 2.19-4.31 2.19-0.261 0.586-0.521 1.17-0.79 1.78-1.29 2.37-2.66 3.92-4.57 5.81-0.684 0.684-1.37 1.37-2.07 2.07-0.74 0.729-1.48 1.46-2.24 2.21-0.762 0.759-1.52 1.52-2.31 2.3-2.44 2.43-4.88 4.85-7.33 7.27-1.64 1.63-3.27 3.25-4.9 4.88-3.01 2.99-6.02 5.98-9.03 8.97-2.92 2.9-5.84 5.8-8.75 8.72l-10 10c-0.887 0.928-1.77 1.86-2.69 2.81-2.31 2.19-2.31 2.19-4.31 2.19v2h-2v2h-2c-0.222 0.548-0.443 1.1-0.672 1.66-1.74 3.06-4.08 5.34-6.58 7.78-0.495 0.489-0.99 0.979-1.5 1.48-2.48 2.43-4.98 4.78-7.69 6.95-2.68 2.07-2.68 2.07-4.81 4.94l-1.75 2.19h-2c-0.371 0.866-0.371 0.866-0.75 1.75-1.43 2.58-3.03 4.31-5.25 6.25h-2l-1 3h-2c-0.34 0.835-0.34 0.835-0.688 1.69-1.69 2.98-3.83 4.94-6.31 7.31-1.27 1.27-2.54 2.54-3.81 3.81l-3.19 3.19c-5.66-4.7-10.8-9.76-16-15-1.67-1.67-3.33-3.33-5-5-1.49-1.49-2.98-2.98-4.47-4.47-0.819-0.819-1.64-1.64-2.48-2.48l-193-193c4.05-6.21 8.69-10.8 14.3-15.5 2.35-2.04 4.52-4.24 6.7-6.47l2.56-2.5c2.49-2.47 2.49-2.47 4.62-5.31 0.598-0.722 1.2-1.44 1.81-2.19h2c0.253-0.592 0.505-1.18 0.766-1.79 1.38-2.47 2.8-3.74 4.98-5.52 2.69-2.27 5.08-4.53 7.31-7.25 2.5-3.04 5.25-5.46 8.28-7.97 2.54-2.25 4.52-4.83 6.66-7.47 2.69-2.88 2.69-2.88 5-5h2l1-3c1.43-1.2 2.87-2.39 4.33-3.55 1.74-1.51 3.15-3.1 4.61-4.89 2.55-3.08 5.33-5.55 8.41-8.09 2.52-2.23 4.51-4.89 6.66-7.47l2.94-2.44c2.36-1.97 4.08-3.67 6-6 2.55-3.08 5.33-5.55 8.41-8.09 2.52-2.23 4.51-4.89 6.66-7.47l2.94-2.44c2.36-1.97 4.08-3.67 6-6 2.58-3.13 5.39-5.67 8.55-8.2 1.77-1.48 1.77-1.48 3.52-4.36h2l1-3c1.43-1.2 2.87-2.39 4.33-3.55 1.72-1.49 3.1-3.06 4.54-4.82 2.8-3.38 5.92-6.17 9.25-9.01 4.49-3.86 8.31-8.23 12.2-12.7 2.13-2.41 4.39-4.68 6.7-6.92 0.722-0.763 1.44-1.53 2.19-2.31 1.81-1.69 1.81-1.69 3.81-1.69v-2c1.57-1.52 1.57-1.52 3.69-3.25 3.57-3.03 6.39-6.11 9.31-9.75 2.38-2.5 4.7-4.77 7.44-6.88 2.72-2.25 4.82-4.68 7.08-7.38 2.05-2.41 4.15-4.61 6.48-6.75h2v-2z" fill="#14B8F5"/>
<path transform="translate(976,1132)" d="m0 0c3.42 1.21 5.01 3.02 7 6l-1 2c-0.99 0.33-1.98 0.66-3 1v2l4-1-0.625 1.81c-0.682 2.47-0.682 2.47 1.62 5.19l-3 2 2 2c-0.804 0.433-1.61 0.866-2.44 1.31-2.84 1.49-2.84 1.49-3.56 4.69-0.99 0.33-1.98 0.66-3 1-0.733 2.02-0.733 2.02-1 4l-1.88 0.188c-2.36 0.63-2.36 0.63-3.31 3.12-0.828 2.58-0.828 2.58-1.25 4.88-0.562 1.81-0.562 1.81-3.56 3.81l-1 3h-4l1 4-5 1-1 3-2 1 1 3h-2l-1 2h-2l1 4-2.44 0.625c-0.846 0.454-1.69 0.908-2.56 1.38-0.898 3.05-0.898 3.05-1 6l-4-1v11h-3l1 4h-7c2.97 0.33 5.94 0.66 9 1-0.309 0.887-0.619 1.77-0.938 2.69-0.892 2.78-1.56 5.44-2.06 8.31h-2v3l2 1-1 1 2 2c1.18 3.54 1 6.26 1 10l-2 1 2 2c0.398 1.99 0.738 3.99 1 6 0.99-0.33 1.98-0.66 3-1 0.268 0.949 0.536 1.9 0.812 2.88 0.937 3.38 0.937 3.38 4.19 5.12 0.293 2.82 0.293 2.82 0.188 6.12-0.0406 1.64-0.0406 1.64-0.082 3.32-0.0348 0.843-0.0696 1.69-0.105 2.55-0.99-0.33-1.98-0.66-3-1l-1 2 2 1h-2l-1 4-4-1-1 5h-4c-1.77 1.92-1.77 1.92-3 4l-2-2-1 2c-0.99 0.33-1.98 0.66-3 1l2 2h-4v3c-5.44 0.99-5.44 0.99-11 2v2l2 1c-1.99 0.381-3.99 0.713-6 1l-1-1c-2.01 0.287-4.01 0.619-6 1l1 2c-0.615 0.11-1.23 0.219-1.86 0.332-0.808 0.159-1.62 0.317-2.45 0.48-0.801 0.151-1.6 0.302-2.43 0.457-2.52 0.815-3.49 1.82-5.26 3.73-1.66 0.359-3.33 0.689-5 1-2.02 0.965-4.02 1.97-6 3-1.27 0.528-2.54 1.05-3.81 1.56-3.27 1.07-3.27 1.07-4.19 3.44-3.61 1.45-6.07 2-10 2v2c-0.857 0.11-1.71 0.219-2.6 0.332-7.34 0.893-7.34 0.893-14.3 3.29-3.59 1.58-6.24 1.61-10.1 1.38l-1 2c-2.67 0.395-5.32 0.722-8 1-3.07 0.461-3.07 0.461-5.27 2.47-2.3 2.03-4.09 2.16-7.11 2.59-3.85 0.557-7.04 1.43-10.6 2.94-1.76 0.562-3.54 1.1-5.31 1.62-0.883 0.26-1.77 0.521-2.68 0.789-0.664 0.193-1.33 0.387-2.01 0.586v1l-15 3v2c-5.44 0.99-5.44 0.99-11 2v3c-2.31 0.33-4.62 0.66-7 1 1.11-7.9 10.1-14.3 16-19 2.52-2.4 4.83-4.78 7-7.5 3.5-4.38 7.58-8.03 11.8-11.8 8.62-7.06 8.62-7.06 15.2-15.8h2v-2h2v-2c3.46-3 3.46-3 6-3 0.231-0.558 0.461-1.12 0.699-1.69 1.65-2.92 3.71-4.91 6.11-7.25 0.852-0.834 1.7-1.67 2.58-2.53 1.29-1.25 1.29-1.25 2.61-2.54 1.67-1.66 3.33-3.33 5-5 1.23-1.23 2.47-2.47 3.7-3.7l27.6-27.6c0.639-0.639 1.28-1.28 1.94-1.94 1.1-1.1 2.21-2.21 3.32-3.31 2.21-2.2 4.3-4.41 6.26-6.83 2.81-3.33 5.93-6.06 9.25-8.88 1.83-1.65 3.37-3.35 4.94-5.25 2.7-3.29 5.72-6 8.97-8.73 2.46-2.15 4.72-4.46 7.03-6.77l24-24c0.898-0.94 1.8-1.88 2.72-2.85 2.28-2.15 2.28-2.15 4.28-2.15 0.266-0.581 0.531-1.16 0.805-1.76 3.28-6.15 8.74-10.9 14-15.3 3.55-3.15 6.8-6.58 10.1-10 2.1-1.94 2.1-1.94 4.1-1.94 0.34-0.835 0.34-0.835 0.688-1.69 1.99-3.51 4.67-6.49 8.31-8.31z" fill="#004E8C"/>
<path transform="translate(883,1238)" d="m0 0c2.31 0.99 4.62 1.98 7 3v4c-1.98 0.66-3.96 1.32-6 2l1 5h-2l-0.312 1.94c-0.688 3.06-0.688 3.06-1.46 4.98-3.09 7.76-2.27 15.1-0.23 23.1v2h4l2-3h3c1.82 5.13-0.14 9.18-2 14l-2-3-2 8h-4l-1 5h-2v2h-2v2c-3.46 0.495-3.46 0.495-7 1v3c-0.603 0.193-1.21 0.387-1.83 0.586-0.799 0.26-1.6 0.521-2.42 0.789-0.789 0.255-1.58 0.51-2.39 0.773-2.35 0.795-2.35 0.795-4.45 1.91-2.56 1.26-5.09 1.55-7.91 1.94v2c-8.08 3.26-15.2 5.92-24 5v2l-2.25 0.75c-2.82 1.04-2.82 1.04-4.38 3.25-3.29 2.77-6.43 2.94-10.6 3.51-2.82 0.504-5.12 1.38-7.75 2.49-1.76 0.562-3.54 1.1-5.31 1.62-0.883 0.26-1.77 0.521-2.68 0.789-0.664 0.193-1.33 0.387-2.01 0.586v1l-15 3v2c-5.44 0.99-5.44 0.99-11 2v3c-3.46 0.495-3.46 0.495-7 1 1.11-7.9 10.1-14.3 16-19 2.52-2.4 4.83-4.78 7-7.5 3.5-4.38 7.58-8.03 11.8-11.8 8.62-7.06 8.62-7.06 15.2-15.8h2v-2h2v-2c3.46-3 3.46-3 6-3 0.346-0.837 0.346-0.837 0.699-1.69 1.65-2.92 3.71-4.91 6.11-7.25 0.852-0.834 1.7-1.67 2.58-2.53 1.29-1.25 1.29-1.25 2.61-2.54 1.67-1.67 3.33-3.33 5-5 1.14-1.14 2.28-2.28 3.41-3.41l27.6-27.6 2 1c0.99 0.33 1.98 0.66 3 1 1.47-1.27 2.94-2.55 4.38-3.86 2.48-1.75 4.7-1.42 7.62-1.14l1-1z" fill="#044070"/>
<path transform="translate(848,1271)" d="m0 0 8 1c-0.667 4.4-2.08 8.01-4 12l-2 1c0.0232 1.24 0.0464 2.48 0.0703 3.76 0.0188 1.64 0.037 3.28 0.0547 4.93 0.0168 0.817 0.0335 1.63 0.0508 2.47 0.0357 4.41-0.1 7.83-2.18 11.8h-2c-0.371 0.66-0.742 1.32-1.12 2-1.88 2-1.88 2-3.85 2.27-2.01-0.0142-4.02-0.134-6.03-0.266l-1 5h-2l-0.438 3.38c-0.562 3.62-0.562 3.62-1.56 5.62h-5v2l-2.25 0.75c-2.82 1.04-2.82 1.04-4.38 3.25-3.29 2.77-6.43 2.94-10.6 3.51-2.82 0.504-5.12 1.38-7.75 2.49-1.76 0.562-3.54 1.1-5.31 1.62-0.883 0.26-1.77 0.521-2.68 0.789-0.664 0.193-1.33 0.387-2.01 0.586v1l-15 3v2c-5.44 0.99-5.44 0.99-11 2v3c-3.46 0.495-3.46 0.495-7 1 1.11-7.9 10.1-14.3 16-19 2.52-2.4 4.83-4.78 7-7.5 3.5-4.38 7.58-8.03 11.8-11.8 8.62-7.06 8.62-7.06 15.2-15.8h2v-2h2v-2c3.46-3 3.46-3 6-3 0.259-0.583 0.518-1.17 0.785-1.77 1.3-2.4 2.73-4.05 4.65-5.98 0.895-0.92 0.895-0.92 1.81-1.86 1.75-1.39 1.75-1.39 4.75-1.39l2 2c2.05-0.0951 2.05-0.0951 4-1l2-3h4c0.227-0.804 0.454-1.61 0.688-2.44 0.433-0.846 0.866-1.69 1.31-2.56 2.62-0.812 2.62-0.812 5-1v-2z" fill="#042E52"/>
<path transform="translate(973,1135)" d="m0 0 1 4h2v2h-3v3l2 1 1 2-2 2-1 2h-3l-1 3c-1.38 2.19-1.38 2.19-3 4h-3c-0.186 0.959-0.186 0.959-0.375 1.94l-0.625 2.06-2 1 1 2-2.81 1.12c-3.71 2.18-4.61 3.94-6.19 7.88l2 1h-3v3h-7l-1 4h-2l-1 3c-1.32 1.02-2.65 2.02-4 3l-2 3c-2.66 1.78-4.96 2.99-8 4l-2-1v4c-3.28 4.13-6.91 5.29-11.8 6.94l-2.25 1.06-1 3c-1.97 1.37-3.98 2.7-6 4l-3 3h-2v2l-5 2c-0.812-2.19-0.812-2.19-1-5 2.12-2.5 2.12-2.5 5-5l34-34c1.35-1.41 1.35-1.41 2.72-2.85 2.28-2.15 2.28-2.15 4.28-2.15 0.266-0.581 0.531-1.16 0.805-1.76 3.28-6.15 8.74-10.9 14-15.3 3.55-3.15 6.8-6.58 10.1-10 2.1-1.94 2.1-1.94 4.1-1.94 0.248-0.598 0.495-1.2 0.75-1.81 1.41-2.47 2.9-3.62 5.25-5.19z" fill="#00589A"/>
<path transform="translate(815,1330)" d="m0 0 4 1c-2.49 3.07-4.53 3.52-8.38 4.06-3.85 0.557-7.04 1.43-10.6 2.94-1.76 0.562-3.54 1.1-5.31 1.62-0.883 0.26-1.77 0.521-2.68 0.789-0.664 0.193-1.33 0.387-2.01 0.586v1l-15 3v2c-3.63 0.66-7.26 1.32-11 2v3c-2.31 0.33-4.62 0.66-7 1 0.56-4.02 2.58-6.17 5.25-9.12 1.15-1.3 1.15-1.3 2.33-2.63 2.43-2.25 4.29-3.25 7.42-4.24l-3 5 2.31-2c2.69-2 2.69-2 5.69-2l1 2c2.65-0.809 5.29-1.62 7.94-2.44 1.13-0.345 1.13-0.345 2.29-0.697 3.68-0.895 3.68-0.895 6.78-2.87 2.23-0.212 4.46-0.369 6.69-0.5 4.51-0.267 8.87-0.681 13.3-1.5v-2z" fill="#043F6F"/>
<path transform="translate(805,1335)" d="m0 0h3v2h-3v2l-2.19 0.812c-2.82 1.09-2.82 1.09-5.19 2.75-3.2 1.75-6.02 2.08-9.62 2.44v3c-6.7 1.03-13.2 1.1-20 1l-1 2-1-3 9-1v-2c0.606-0.17 1.21-0.34 1.84-0.516 4.52-1.31 8.89-2.73 13.2-4.55 4.03-1.67 7.94-2.74 12.2-3.54 1.74-0.24 1.74-0.24 2.71-1.39z" fill="#004E8C"/>
<path transform="translate(764,1349)" d="m0 0h2v3l2 1v2h2v7c-3 0-3 0-5.04-1.75-0.708-0.742-1.42-1.48-2.14-2.25-0.715-0.742-1.43-1.48-2.17-2.25-0.543-0.578-1.09-1.16-1.64-1.75 0.99-1.32 1.98-2.64 3-4v2h2v-3z" fill="#004D8B"/>
<path transform="translate(844,1323)" d="m0 0v2c-4.12 2-7.45 2.18-12 2l-1 2c-2.5 0.414-2.5 0.414-5.56 0.625-1.01 0.0748-2.02 0.15-3.07 0.227-0.782 0.049-1.56 0.098-2.37 0.148l1-2h4v-2c0.915-0.133 1.83-0.266 2.77-0.402 1.19-0.177 2.38-0.353 3.6-0.535 1.18-0.174 2.37-0.348 3.59-0.527 8.72-1.54 8.72-1.54 9.04-1.54z" fill="#014881"/>
<path transform="translate(1360,1516)" d="m0 0 2 1z" fill="#054070"/>
<path transform="translate(1360,83)" d="m0 0 2 1z" fill="#23A1D7"/>
</svg>
