<?xml version="1.0" standalone="no"?>
<!DOCTYPE svg PUBLIC "-//W3C//DTD SVG 20010904//EN"
 "http://www.w3.org/TR/2001/REC-SVG-20010904/DTD/svg10.dtd">
<svg version="1.0" xmlns="http://www.w3.org/2000/svg"
 width="300.000000pt" height="168.000000pt" viewBox="0 0 300.000000 168.000000"
 preserveAspectRatio="xMidYMid meet">
<metadata>
Created by potrace 1.10, written by Peter Selinger 2001-2011
</metadata>
<g transform="translate(0.000000,168.000000) scale(0.100000,-0.100000)"
fill="#000000" stroke="none">
<path d="M1875 1229 c-4 -5 -12 -6 -18 -3 -7 4 -9 4 -5 -1 4 -4 -5 -18 -21
-29 -15 -12 -26 -27 -23 -35 3 -8 0 -11 -6 -7 -6 4 -11 -13 -14 -43 -1 -28 1
-47 6 -43 5 3 7 -4 4 -16 -7 -27 23 -63 75 -90 42 -22 39 -25 -38 -38 -22 -3
-50 -13 -62 -20 -20 -13 -23 -13 -23 0 0 8 -9 21 -20 29 -11 8 -18 16 -15 18
7 7 -55 36 -110 51 -31 9 -81 13 -130 10 -44 -2 -93 -4 -110 -4 -25 0 -27 -1
-10 -8 19 -8 19 -9 -3 -9 -28 -1 -125 -41 -117 -49 3 -3 -4 -11 -15 -19 -27
-19 -27 -86 0 -120 21 -26 19 -43 -5 -43 -8 0 -19 -9 -25 -21 -21 -39 -46 12
-54 113 -1 4 -7 13 -14 20 -6 6 -12 16 -12 21 0 13 -43 52 -89 82 -84 55 -259
51 -332 -7 -37 -29 -70 -90 -68 -126 0 -14 2 -14 9 3 7 17 9 16 9 -9 1 -16 10
-37 23 -47 11 -11 17 -19 12 -19 -5 0 -2 -5 6 -10 13 -8 12 -10 -2 -10 -10 0
-18 -4 -18 -10 0 -5 -3 -9 -7 -9 -22 4 -32 -5 -57 -52 -22 -40 -27 -58 -22
-87 4 -20 8 -47 9 -59 1 -15 9 -23 21 -23 11 0 16 -3 13 -6 -4 -4 10 -16 31
-27 27 -14 58 -20 112 -21 95 -1 200 7 200 16 0 3 36 8 79 10 44 2 77 0 75 -3
-2 -4 5 -9 15 -12 14 -3 17 0 14 13 -9 33 -98 39 -228 15 -152 -27 -246 -15
-291 38 -45 54 -23 144 48 187 38 24 145 59 204 67 l41 5 -7 38 c-10 54 -42
104 -69 108 -29 5 -51 -15 -51 -45 0 -27 25 -42 43 -24 8 8 7 11 -6 11 -9 0
-17 5 -17 10 0 11 20 13 44 4 21 -8 20 -48 -1 -69 -42 -43 -140 -49 -178 -10
-30 29 -31 50 -5 93 30 50 97 76 190 76 81 -1 131 -17 187 -60 57 -43 66 -74
73 -229 6 -132 18 -185 40 -185 6 0 10 7 10 16 0 9 6 14 13 11 6 -2 11 -10 9
-17 -2 -8 3 -10 13 -7 9 4 15 1 15 -9 0 -8 6 -14 13 -13 31 4 49 -2 44 -14 -4
-10 8 -14 42 -17 100 -8 245 -2 281 12 8 3 36 13 63 23 26 9 47 21 47 27 0 6
6 5 15 -2 9 -7 13 -15 10 -18 -2 -3 2 -10 11 -16 9 -7 43 -9 97 -5 45 3 123 4
172 3 l91 -4 18 31 c26 44 54 150 60 227 7 75 -9 135 -36 140 -16 3 -17 0 -3
-39 19 -53 19 -76 -2 -172 -11 -52 -19 -73 -26 -65 -5 8 -7 2 -3 -17 l5 -30
-14 32 c-33 72 -45 303 -20 366 4 10 3 17 -4 17 -7 0 -19 -17 -28 -37 -27 -66
-3 -315 41 -413 6 -14 -10 -15 -127 -12 -73 2 -149 0 -169 -6 -20 -5 -39 -8
-41 -6 -3 3 7 37 21 77 33 94 43 253 18 288 -9 13 -16 26 -16 29 0 3 24 6 53
8 28 1 75 9 102 19 64 20 148 75 133 84 -9 6 -9 14 0 34 20 43 11 145 -12 145
-6 0 -22 13 -35 29 -22 26 -31 29 -82 30 -32 0 -61 -4 -64 -10z m110 -23 c60
-25 84 -115 48 -176 -21 -35 -52 -50 -107 -50 -33 0 -49 6 -70 26 -68 69 -43
176 49 206 32 10 43 9 80 -6z m-346 -243 c81 -27 113 -93 70 -147 -42 -53
-149 -22 -149 44 0 25 16 50 32 50 4 0 8 -9 8 -20 0 -13 7 -20 20 -20 28 0 27
44 -2 64 -52 37 -108 8 -108 -55 0 -45 34 -83 110 -127 73 -41 120 -91 120
-127 0 -63 -56 -105 -170 -129 -174 -37 -342 0 -385 84 -55 106 37 201 146
152 85 -38 124 -117 80 -161 -18 -18 -25 -20 -43 -10 l-22 12 22 8 c25 9 29
31 8 48 -25 21 -53 -37 -34 -72 15 -29 27 -37 62 -37 42 0 66 26 66 72 0 73
-38 117 -149 173 -107 53 -127 100 -66 154 73 64 260 85 384 44z m146 -194
c-1 -30 -5 -65 -10 -78 l-7 -24 -34 37 c-18 20 -38 36 -43 36 -21 0 -10 26 17
42 15 9 34 28 41 42 21 39 39 11 36 -55z"/>
<path d="M213 1140 c-22 -9 -27 -20 -24 -48 1 -7 -5 -15 -13 -18 -9 -3 -13
-10 -10 -15 3 -6 1 -15 -4 -22 -8 -10 -23 -140 -24 -217 -1 -43 20 -130 31
-130 3 0 24 -16 46 -35 22 -19 43 -35 47 -35 4 0 19 -5 35 -12 15 -6 31 -11
34 -10 15 3 -5 -40 -27 -57 -26 -21 -28 -28 -14 -51 7 -11 36 -16 113 -20 90
-4 106 -3 122 13 24 23 44 82 34 99 -5 7 -9 27 -10 43 -1 29 -1 30 -9 5 -8
-24 -8 -24 -11 -2 -1 12 -2 28 -3 35 -1 6 -9 20 -20 31 -20 20 -18 75 5 132 7
16 13 34 14 39 7 42 19 74 25 70 4 -3 10 12 14 33 3 21 19 58 36 83 16 24 30
50 30 56 0 25 -48 46 -92 40 -55 -7 -71 -28 -51 -67 13 -26 13 -36 -1 -82 -8
-29 -22 -62 -30 -73 -15 -20 -15 -20 -16 0 0 17 -2 18 -11 5 -8 -12 -9 -11 -7
5 2 11 -6 40 -18 65 -20 41 -21 48 -7 80 13 33 13 36 -8 52 -23 20 -135 24
-176 8z m177 -29 c0 -5 -9 -13 -20 -16 -11 -3 -20 -12 -20 -19 0 -10 67 -218
86 -266 7 -17 94 220 94 255 0 14 -7 25 -20 28 -11 3 -20 10 -20 16 0 7 25 11
65 11 40 0 65 -4 65 -11 0 -6 -8 -13 -19 -16 -10 -3 -26 -21 -35 -41 -29 -70
-108 -287 -109 -305 -2 -20 2 -22 -64 23 -57 38 -52 29 -123 227 -22 64 -38
94 -51 98 -45 15 -12 25 76 25 52 0 95 -4 95 -9z m-187 -84 c-9 -111 36 -175
200 -282 72 -47 104 -93 121 -176 7 -35 12 -65 11 -67 -1 -1 -55 -3 -120 -4
-84 -1 -120 2 -123 10 -2 8 8 12 26 12 32 0 42 14 42 61 0 32 10 35 57 19 20
-7 32 -20 39 -43 6 -22 16 -33 32 -35 31 -5 27 15 -11 53 -26 26 -48 36 -115
50 -139 30 -202 95 -202 210 0 30 5 55 10 55 6 0 10 -19 10 -41 0 -82 50 -126
198 -174 29 -9 67 -29 85 -43 l32 -27 -16 25 c-9 14 -54 47 -100 75 -110 65
-161 117 -189 191 -17 46 -20 70 -15 108 5 44 20 86 29 86 2 0 1 -28 -1 -63z
m47 -49 c0 -7 3 -24 6 -38 5 -17 4 -22 -4 -15 -16 15 -26 65 -13 65 6 0 11 -6
11 -12z"/>
<path d="M2590 1003 c-14 -3 -36 -13 -50 -22 -14 -10 -33 -21 -43 -24 -10 -4
-16 -11 -13 -16 3 -5 -1 -12 -10 -15 -24 -9 -27 -8 -21 14 7 27 -9 35 -22 11
-12 -22 -27 -161 -17 -161 3 0 10 10 15 23 33 84 135 167 207 167 83 0 117
-60 129 -225 8 -104 27 -197 49 -240 9 -16 16 -28 17 -25 0 3 2 15 5 28 2 12
0 22 -4 22 -4 0 -8 12 -7 28 0 15 -3 30 -7 33 -8 5 -32 210 -31 258 1 15 -2
19 -7 12 -5 -9 -9 -5 -13 11 -9 33 -7 47 3 23 6 -13 9 -15 9 -5 0 8 -13 33
-29 54 -17 22 -30 35 -30 30 0 -5 -4 -3 -9 5 -10 15 -76 23 -121 14z"/>
<path d="M2420 990 c-14 -4 -38 -13 -55 -20 -16 -7 -36 -12 -42 -11 -7 1 -13
-3 -13 -9 0 -6 -11 -8 -27 -4 -19 4 -24 3 -15 -4 9 -6 -4 -11 -44 -15 -31 -3
-64 -12 -71 -20 -13 -12 -8 -14 37 -11 92 5 183 37 240 83 27 22 27 23 -10 11z"/>
<path d="M2462 808 c-11 -13 -26 -44 -33 -70 -11 -41 -10 -55 10 -130 13 -45
26 -91 29 -101 4 -15 1 -16 -22 -7 -32 12 -233 12 -291 1 -36 -7 -38 -9 -18
-17 12 -5 54 -7 93 -4 38 3 81 2 95 -2 14 -3 23 -3 20 1 -2 5 26 6 63 4 81 -6
94 4 117 92 17 67 20 207 5 236 -14 25 -42 24 -68 -3z m46 -120 c-2 -51 -9
-102 -15 -112 -9 -16 -13 -9 -26 50 -20 85 -8 154 25 154 19 0 20 -5 16 -92z"/>
<path d="M874 705 c-45 -60 -70 -164 -44 -180 29 -18 74 65 85 158 8 67 -2 73
-41 22z"/>
<path d="M2527 503 c-16 -3 -26 -10 -24 -16 2 -8 28 -11 80 -8 156 6 205 6
200 -1 -2 -5 0 -8 6 -8 17 0 24 22 10 31 -14 9 -218 10 -272 2z"/>
</g>
</svg>
